<svg baseProfile="tiny" xmlns="http://www.w3.org/2000/svg" width="509.424" height="56.753" preserveAspectRatio="xMaxYMax meet"><path fill="#231F20" d="M-19.462-3.96c6.595 0 11.96 5.365 11.96 11.96s-5.365 11.96-11.96 11.96-11.96-5.365-11.96-11.96 5.365-11.96 11.96-11.96m0-4c-8.814 0-15.96 7.145-15.96 15.96 0 8.813 7.146 15.96 15.96 15.96S-3.502 16.813-3.502 8c0-8.815-7.146-15.96-15.96-15.96z"/><path d="M-19.462 16.33a8.518 8.518 0 0 0 8.52-8.52 8.518 8.518 0 0 0-8.52-8.518"/><path d="M31.92 0h48v48h-48V0z" fill="none"/><path d="M65.92 30h4V14c0-2.21-1.79-4-4-4h-16v4h16v16zm-20 4V2h-4v8h-8v4h8v20c0 2.21 1.79 4 4 4h20v8h4v-8h8v-4h-32z"/><path d="M79.92 0h48v48h-48V0z" fill="none"/><path d="M113.04 17.88L95.16 0l-2.83 2.83 4.76 4.76L86.8 17.88a3 3 0 0 0 0 4.24l11 11c.58.59 1.35.88 2.12.88s1.54-.29 2.12-.88l11-11a3 3 0 0 0 0-4.24zM90.33 20l9.59-9.58 9.59 9.58H90.33zm27.59 3s-4 4.33-4 7c0 2.21 1.79 4 4 4s4-1.79 4-4c0-2.67-4-7-4-7zm-38 17h48v3h-48zm54.275-36.643h2.398V0h-2.878c-3.14.18-4.255 2.387-3.847 6.115h-1.948v3.517h1.958v9.312h3.837V9.632h2.857V6.115h-2.866c-.02-1.045-.036-2.406.49-2.758zm530.572 481.698a.73.73 0 0 1-.552-.25c-3.798-4.323-4.644-5.297-4.858-5.57h-.004a3.866 3.866 0 0 1-.82-2.374 3.802 3.802 0 0 1 3.798-3.798c.934 0 1.804.32 2.484.898a3.847 3.847 0 0 1 2.463-.898c2.095 0 3.8 1.704 3.8 3.8 0 .908-.32 1.753-.897 2.38l-4.86 5.56a.73.73 0 0 1-.554.253zm-4.245-6.706c.207.254 2.47 2.838 4.242 4.857l4.323-4.944c.34-.37.52-.86.52-1.4a2.333 2.333 0 0 0-2.33-2.33c-.73 0-1.42.344-1.9.943a.76.76 0 0 1-.585.275.722.722 0 0 1-.575-.293 2.333 2.333 0 0 0-1.887-.925 2.333 2.333 0 0 0-2.33 2.33c0 .68.275 1.172.507 1.468.004.006.01.012.014.02z"/><path fill="#fff" d="M164.052 1.814c1.196-.998.902-1.814-.657-1.814h-10.527c-1.56 0-1.853.816-.656 1.814l3.742 3.118c1.197.998 3.158.998 4.355 0l3.744-3.118zm-3.001 5.23a209.809 209.809 0 0 1-2.218 1.836l-.02.013a1.048 1.048 0 0 1-.235.136c-.033.014-.066.033-.1.047-.11.034-.223.058-.335.06h-.022a1.257 1.257 0 0 1-.335-.06c-.034-.014-.068-.033-.1-.048a1.075 1.075 0 0 1-.235-.137l-.02-.013c-.022-.012-1.02-.838-2.218-1.836l-3.897-3.246c-1.2-.998-2.178-.54-2.178 1.02v6.315a2.843 2.843 0 0 0 2.835 2.836h12.318a2.842 2.842 0 0 0 2.835-2.835V4.817c0-1.56-.98-2.018-2.178-1.02l-3.897 3.248z"/><g transform="translate(167.126)"><circle fill="#fff" cx="17.991" cy="17.991" r="17.991"/><circle fill="#D22856" cx="17.991" cy="17.991" r="7.866"/></g><g fill="#fff"><path d="M204.246 0c-.627 0-1.137.428-1.137 1.01v1.98c0 .56.494 1.01 1.14 1.01h47.67c.628 0 1.138-.427 1.138-1.01V1.01c0-.558-.494-1.01-1.138-1.01h-47.673zm0 10.003c-.627 0-1.137.427-1.137 1.01v1.98c0 .557.494 1.01 1.14 1.01h47.67c.628 0 1.138-.428 1.138-1.01v-1.98c0-.558-.494-1.01-1.138-1.01h-47.673zm0 10.002c-.627 0-1.137.43-1.137 1.01v1.982c0 .557.494 1.01 1.14 1.01h47.67c.628 0 1.138-.428 1.138-1.01v-1.98c0-.56-.494-1.012-1.138-1.012h-47.673z"/><path d="M204.246 0c-.627 0-1.137.428-1.137 1.01v1.98c0 .56.494 1.01 1.14 1.01h47.67c.628 0 1.138-.427 1.138-1.01V1.01c0-.558-.494-1.01-1.138-1.01h-47.673zm0 10.003c-.627 0-1.137.427-1.137 1.01v1.98c0 .557.494 1.01 1.14 1.01h47.67c.628 0 1.138-.428 1.138-1.01v-1.98c0-.558-.494-1.01-1.138-1.01h-47.673zm0 10.002c-.627 0-1.137.43-1.137 1.01v1.982c0 .557.494 1.01 1.14 1.01h47.67c.628 0 1.138-.428 1.138-1.01v-1.98c0-.56-.494-1.012-1.138-1.012h-47.673z"/></g><path fill="#fff" d="M268.141 11.933l8.56-8.56a.749.749 0 0 0 0-1.06L274.608.22a.75.75 0 0 0-1.06 0l-8.56 8.56-8.561-8.56a.772.772 0 0 0-1.062 0l-2.091 2.093a.749.749 0 0 0 0 1.06l8.56 8.56-8.56 8.56a.749.749 0 0 0 0 1.06l2.093 2.095c.14.142.33.22.53.22s.39-.078.53-.22l8.56-8.56 8.56 8.56a.75.75 0 0 0 1.06 0l2.094-2.094a.751.751 0 0 0 0-1.062l-8.56-8.56z"/><path d="M292.418 13.376l10.815-10.814a1.498 1.498 0 1 0-2.12-2.12l-10.817 10.812L279.483.44a1.496 1.496 0 0 0-2.12 0 1.496 1.496 0 0 0 0 2.12l10.813 10.815-10.815 10.815a1.496 1.496 0 0 0 0 2.12c.292.294.676.44 1.06.44s.768-.146 1.06-.44l10.816-10.813 10.814 10.815a1.496 1.496 0 0 0 2.122 0 1.498 1.498 0 0 0 0-2.12l-10.815-10.817z"/><path fill="#fff" d="M313.521 0c-3.508 0-7.025.628-8.302 1.878-1.058 1.04-1.412 2.874-1.53 4.035 0 0-.016.115-.016.165 0 .454.37.82.82.82.053 0 2.027-.16 3.217-.26a.408.408 0 0 0 .086-.016.82.82 0 0 0 .8-.82l.004-1.616c0-.5.407-.902.907-.902h8.027c.5 0 .908.402.908.902l.003 1.617c0 .447.357.808.803.82.027.01.056.013.085.017 1.19.098 3.164.26 3.217.26.45 0 .822-.367.822-.82 0-.05-.018-.166-.018-.166-.12-1.16-.473-2.995-1.53-4.035C320.545.627 317.028 0 313.52 0zm0 10.67a1.64 1.64 0 1 0 0 3.28 1.64 1.64 0 1 0 0-3.28zm-1.232-3.695V5.95a1.025 1.025 0 0 0-2.048.001v1.025l-5.538 5.912c-.382.376-.62.894-.62 1.47v1.646c0 .907.735 1.643 1.642 1.643h.41v1.023a1.026 1.026 0 1 0 2.05 0v-1.023h10.67v1.023a1.025 1.025 0 1 0 2.05 0v-1.023h.41c.906 0 1.64-.735 1.64-1.643v-1.646c0-.576-.235-1.094-.617-1.47l-5.535-5.913V5.95a1.026 1.026 0 0 0-2.051.001v1.025h-2.464zm1.232 2.053a3.28 3.28 0 0 1 3.282 3.282 3.28 3.28 0 1 1-6.562 0 3.279 3.279 0 0 1 3.28-3.282z"/><path fill-rule="evenodd" clip-rule="evenodd" d="M334.653.153c1.736-.485 3.074.263 3.685 1.15.694-.225 1.372-.47 2.072-.69-.004.84-.538 1.478-.883 1.727.704.166 1.343-.48 1.343-.48-.175.976-1.035 1.746-1.61 1.977-.24 6.592-3.273 10.956-10.383 10.823h-.46c-.422 0-4.29-.45-5.047-1.843 2.34.192 4.01-.412 4.835-1.15-.99-.293-2.76-.464-3.07-2.88.362.104.583.222 1.228.116-1.236-.836-2.608-1.537-2.533-3.685.295.32 1.1.523 1.382.46-.725-.233-2.03-3.278-.92-4.834 1.872 1.81 3.847 3.52 7.368 3.685.216-2.24 1.17-3.74 2.993-4.375z"/><path d="M279.917 5.167a1 1 0 0 0-1.414 0L265.12 18.55l-4.9-4.9a1 1 0 0 0-1.414 1.415l5.607 5.607a.996.996 0 0 0 1.414 0l14.09-14c.39-.48.39-1.114 0-1.505zm84.426 8.613c-.975.477-1.775-.022-1.775-1.11V1.29c0-1.088.8-1.585 1.775-1.11l12.133 5.933c.975.478.975 1.258 0 1.736l-12.133 5.931z"/><path d="M411.352 14.01h-26.2c-.008.11-.017.22-.017.332v18.755c0 1.926 1.457 3.49 3.316 3.627v7.43a2.886 2.886 0 0 0 5.77-.001v-7.42h8.058v7.42a2.885 2.885 0 1 0 5.772-.001V36.72c1.858-.137 3.315-1.7 3.315-3.627v-18.75c0-.114-.004-.224-.013-.334zm-31.258 1.67a2.885 2.885 0 0 1 2.886 2.884v12.378a2.885 2.885 0 1 1-5.772 0V18.564a2.885 2.885 0 0 1 2.886-2.885zm36.312 0a2.884 2.884 0 0 1 2.886 2.884v12.378a2.884 2.884 0 0 1-2.886 2.886 2.884 2.884 0 0 1-2.885-2.886V18.564a2.884 2.884 0 0 1 2.885-2.885zm-31.168-3.713h26.026c-.04-2.783-1.234-5.322-3.187-7.275l2.445-4.235a.309.309 0 0 0-.112-.415.305.305 0 0 0-.415.11l-2.371 4.108c-2.052-1.853-6.25-3.4-9.374-3.4-3.016 0-7.322 1.547-9.374 3.4L386.504.152a.303.303 0 0 0-.525.304l2.445 4.235c-1.95 1.955-3.147 4.494-3.185 7.277zm17.293-5.163c-.002-.805.664-1.46 1.488-1.462.827-.002 1.495.648 1.5 1.454v.008c0 .805-.665 1.46-1.49 1.462-.824.002-1.494-.65-1.497-1.454v-.008zm-11.143 0c0-.805.665-1.46 1.49-1.462.823-.002 1.493.648 1.496 1.454v.008c.002.805-.664 1.46-1.488 1.462-.825.002-1.495-.65-1.498-1.454v-.008z" fill="#A4C639"/><path fill="#fff" d="M457.885 30.15c.08 8.59 7.535 11.447 7.617 11.483-.062.202-1.19 4.073-3.927 8.072-2.365 3.457-4.82 6.9-8.688 6.973-3.8.07-5.02-2.253-9.365-2.253-4.344 0-5.702 2.182-9.298 2.32-3.733.142-6.576-3.74-8.96-7.184-4.876-7.045-8.6-19.91-3.598-28.592 2.484-4.313 6.925-7.043 11.743-7.114 3.666-.07 7.126 2.466 9.366 2.466 2.24 0 6.444-3.05 10.865-2.6 1.85.076 7.044.746 10.38 5.628-.27.17-6.197 3.623-6.135 10.802m-7.14-21.088c1.982-2.4 3.316-5.74 2.952-9.062-2.857.115-6.312 1.904-8.36 4.302-1.837 2.123-3.445 5.52-3.01 8.778 3.183.246 6.435-1.62 8.418-4.018"/><path fill="#F05423" d="M486.376 19.953h-20.874V0h20.874v19.953z"/><path fill="#84C441" d="M509.424 19.953h-20.872V0h20.87v19.953z"/><path fill="#2DABE2" d="M486.375 41.992h-20.873V22.04h20.873v19.952z"/><path fill="#F9BC15" d="M509.424 41.992h-20.872V22.04h20.87v19.952z"/></svg>